<svg width="334" height="278" viewBox="0 0 334 278" fill="none" xmlns="http://www.w3.org/2000/svg">
<mask id="mask0" mask-type="alpha" maskUnits="userSpaceOnUse" x="197" y="0" width="137" height="118">
<path d="M197 -1.63371e-06L197 118L334 118L334 0L197 -1.63371e-06Z" fill="#896969"/>
</mask>
<g mask="url(#mask0)">
<rect width="20" height="181.57" transform="matrix(-0.563104 0.826386 0.826386 0.563104 195.453 -0.860779)" fill="black"/>
</g>
<mask id="mask1" mask-type="alpha" maskUnits="userSpaceOnUse" x="0" y="8" width="149" height="113">
<path d="M-1.17291e-06 8L-2.52042e-06 121L149 121L149 8L-1.17291e-06 8Z" fill="#E60000"/>
</mask>
<g mask="url(#mask1)">
<rect x="150.027" y="8.00012" width="20" height="181.574" transform="rotate(55.7293 150.027 8.00012)" fill="black"/>
</g>
<path d="M334 208H314V278H334V208Z" fill="black"/>
<path d="M199 258L199 278L332 278L332 258L199 258Z" fill="black"/>
<rect x="197" y="14" width="20" height="264" fill="black"/>
<path d="M99 258L99 278L181 278L181 258L99 258Z" fill="black"/>
<path d="M117 138H97L97 278H117V138Z" fill="black"/>
<path d="M181 158L181 138L99 138L99 158L181 158Z" fill="black"/>
<rect x="163" y="6.10352e-05" width="20" height="278" fill="black"/>
<path d="M2 258L2 278L83 278L83 258L2 258Z" fill="black"/>
<rect y="110" width="20" height="168" fill="black"/>
</svg>
